<?xml version="1.0" standalone="no"?>
<!DOCTYPE svg PUBLIC "-//W3C//DTD SVG 20010904//EN"
 "http://www.w3.org/TR/2001/REC-SVG-20010904/DTD/svg10.dtd">
<svg version="1.0" xmlns="http://www.w3.org/2000/svg"
 width="1000.000000pt" height="1000.000000pt" viewBox="0 0 1000.000000 1000.000000"
 preserveAspectRatio="xMidYMid meet">

<g transform="translate(0.000000,1000.000000) scale(0.100000,-0.100000)"
fill="#000000" stroke="none">
<path d="M0 7980 c0 -1111 4 -2020 8 -2020 9 0 32 -88 32 -122 0 -15 -5 -19
-20 -15 -20 5 -20 0 -20 -2909 l0 -2914 5000 0 5000 0 0 5000 0 5000 -3255 0
c-3059 0 -3256 -1 -3253 -17 2 -13 -7 -19 -39 -24 -77 -14 -163 -64 -163 -96
0 -16 -48 -29 -61 -16 -6 6 -6 20 1 37 5 15 10 37 10 50 0 14 10 28 25 36 14
7 25 17 25 22 0 4 -740 8 -1645 8 l-1645 0 0 -2020z m6948 1979 c3 -19 -21
-31 -43 -23 -8 4 -15 15 -15 26 0 15 6 19 27 16 16 -2 29 -10 31 -19z m1220
-41 c6 -6 12 -16 12 -22 0 -6 6 -22 13 -36 8 -14 16 -39 20 -55 3 -17 8 -37
12 -46 6 -15 -4 -17 -80 -18 -51 -1 -101 -7 -122 -16 -19 -8 -38 -13 -42 -10
-16 9 -73 173 -65 186 2 3 36 11 76 18 40 7 80 14 88 16 22 4 73 -6 88 -17z
m-2140 -292 c3 -11 0 -16 -7 -12 -18 12 -32 -3 -22 -23 10 -17 -2 -51 -12 -35
-10 18 -18 74 -12 84 11 17 49 7 53 -14z m1050 -35 c12 -6 27 -9 32 -6 6 4 34
-14 62 -39 29 -25 67 -53 85 -61 18 -9 33 -20 33 -25 0 -24 -97 4 -105 30 -3
10 -16 22 -28 26 -17 5 -88 53 -136 90 -1 1 0 8 5 15 5 9 10 8 18 -3 6 -8 21
-20 34 -27z m202 -78 c0 -11 -4 -11 -20 -3 -11 6 -20 15 -20 19 0 5 9 7 20 4
11 -3 20 -12 20 -20z m-525 -33 c3 -5 -1 -10 -10 -10 -9 0 -13 5 -10 10 3 6 8
10 10 10 2 0 7 -4 10 -10z m-1757 -46 c21 -62 9 -94 -49 -132 -27 -18 -55 -43
-60 -56 -9 -20 -21 -24 -77 -30 -37 -3 -78 -9 -91 -13 -23 -6 -24 -5 -17 43
17 119 43 157 118 173 27 6 70 22 96 36 26 14 51 24 57 22 5 -2 16 -21 23 -43z
m573 -100 c9 -11 23 -14 46 -11 18 3 35 1 38 -4 4 -5 15 -9 26 -9 16 0 19 -7
19 -50 0 -55 10 -78 53 -126 l28 -31 -23 -7 c-39 -11 -164 -19 -190 -13 -35 9
-47 45 -54 152 -5 83 -4 94 13 104 24 14 28 14 44 -5z m-4261 -60 c0 -14 -8
-16 -41 -11 -66 9 -73 27 -11 27 41 0 52 -3 52 -16z m4839 -49 c1 -38 -1 -55
-8 -50 -6 3 -11 31 -11 61 0 72 16 62 19 -11z m-189 -51 c6 -14 10 -38 10 -54
0 -38 -27 -46 -77 -24 -36 16 -45 20 -59 23 -3 0 4 14 15 30 11 15 25 40 31
55 10 26 10 26 40 11 17 -9 35 -27 40 -41z m138 14 c6 -24 7 -47 3 -51 -12
-12 -17 0 -26 51 -9 55 9 55 23 0z m-1098 -2 c0 -7 -7 -19 -15 -26 -16 -13
-20 -3 -9 24 8 20 24 21 24 2z m1052 -27 c8 -41 0 -81 -16 -76 -11 4 -26 104
-17 113 11 11 26 -5 33 -37z m-4692 -44 c0 -20 -15 -25 -83 -28 -30 -1 -59 -6
-63 -10 -11 -10 -74 -9 -74 2 0 5 9 7 20 4 11 -3 27 1 36 8 9 8 47 19 83 25
36 6 69 12 74 13 4 0 7 -6 7 -14z m918 -24 c-2 -10 -16 -17 -36 -19 -26 -3
-32 0 -32 16 0 16 7 20 35 19 27 -1 35 -5 33 -16z m6512 -56 c0 -8 -7 -15 -15
-15 -9 0 -12 6 -9 15 4 8 10 15 15 15 5 0 9 -7 9 -15z m-30 -65 c0 -16 -5 -32
-11 -36 -8 -4 -9 3 -4 25 4 20 3 31 -5 31 -6 0 -8 5 -5 10 11 17 25 0 25 -30z
m-44 -65 c0 0 -16 -6 -33 -12 -45 -16 -49 -2 -10 44 l32 40 6 -36 c4 -20 6
-36 5 -36z m89 35 c3 -5 3 -21 -1 -35 -6 -24 -8 -25 -21 -12 -9 9 -13 23 -8
36 7 22 20 27 30 11z m-8375 -72 c0 -17 -15 -7 -27 18 -12 26 -12 26 7 9 11
-10 20 -22 20 -27z m8215 -36 c-8 -8 -25 17 -25 38 0 9 6 6 16 -8 9 -13 13
-26 9 -30z m65 33 c0 -9 -7 -32 -15 -51 -8 -20 -12 -40 -9 -46 8 -12 33 22 34
47 1 13 4 15 7 7 3 -8 1 -24 -5 -35 -6 -12 -12 -31 -14 -41 -4 -24 -28 -34
-28 -12 0 9 -7 16 -15 16 -19 0 -20 53 -1 69 8 7 17 23 20 36 7 27 26 34 26
10z m60 -29 c0 -3 -4 -8 -10 -11 -5 -3 -10 -1 -10 4 0 6 5 11 10 11 6 0 10 -2
10 -4z m-8400 -28 c0 -6 3 -9 6 -5 10 10 36 -22 31 -37 -7 -18 -47 -9 -47 9 0
8 -3 20 -6 29 -3 9 -1 16 5 16 6 0 11 -5 11 -12z m8210 -65 c0 -32 6 -41 35
-61 l36 -23 -53 -64 c-29 -35 -56 -64 -60 -64 -19 -2 -5 29 27 58 40 36 40 37
19 79 -16 34 -34 42 -34 17 0 -8 -7 -15 -15 -15 -8 0 -15 -7 -15 -15 0 -8 -4
-15 -9 -15 -5 0 -9 17 -9 38 -1 29 7 46 29 70 39 41 49 40 49 -5z m46 2 c-4
-14 -11 -25 -16 -25 -15 0 -12 48 3 53 18 6 20 1 13 -28z m-4683 11 c18 -8 51
-20 75 -26 70 -18 52 -46 -81 -129 -45 -27 -77 -91 -77 -153 0 -35 -3 -39 -22
-36 -12 2 -30 18 -41 38 -29 53 -33 55 -97 52 -33 -2 -60 0 -60 5 0 4 15 31
34 60 21 34 36 49 43 42 6 -6 14 -1 23 16 7 14 22 25 33 25 10 0 38 16 60 36
32 27 50 35 77 34 52 -3 57 -1 36 15 -26 20 -65 19 -88 -2 -25 -22 -36 -8 -13
17 21 24 55 26 98 6z m-3189 -22 c31 -32 32 -38 5 -65 -36 -36 -93 -3 -97 56
-3 34 -1 35 31 35 24 0 43 -8 61 -26z m3056 6 c0 -24 -22 -60 -36 -60 -9 0
-26 -10 -37 -22 l-20 -23 7 30 c12 53 28 84 44 88 21 4 42 -2 42 -13z m-3493
-24 c-3 -8 1 -13 11 -12 9 0 18 -7 20 -16 5 -25 -26 -23 -49 4 -25 27 -24 38
2 38 14 0 19 -5 16 -14z m5730 -16 c7 -14 10 -26 8 -29 -8 -7 -45 31 -45 46 0
21 23 10 37 -17z m2615 -2 c-9 -9 -12 -7 -12 12 0 19 3 21 12 12 9 -9 9 -15 0
-24z m-1598 -4 c9 -8 16 -28 16 -44 0 -16 5 -41 10 -55 17 -44 2 -98 -32 -118
-25 -14 -29 -22 -27 -51 2 -19 -3 -41 -10 -50 -11 -13 -11 -19 -1 -31 7 -8 18
-15 25 -15 17 0 26 -39 14 -61 -5 -10 -17 -20 -26 -23 -22 -7 -112 -11 -116
-5 -1 2 -12 18 -25 36 -12 18 -22 37 -22 42 0 19 -23 24 -36 7 -14 -20 -21
-12 -41 44 -19 52 -16 85 12 140 27 54 31 56 70 38 19 -8 31 -8 50 0 34 16 31
36 -9 67 -32 24 -34 29 -23 53 6 15 12 28 13 30 1 2 13 -8 27 -22 29 -29 52
-33 64 -13 4 8 16 17 26 20 10 4 15 11 12 17 -10 16 12 12 29 -6z m-6806 -79
c2 -29 -3 -31 -24 -11 -19 20 -18 36 4 36 12 0 18 -8 20 -25z m8292 -25 c0 -5
-2 -10 -4 -10 -3 0 -8 5 -11 10 -3 6 -1 10 4 10 6 0 11 -4 11 -10z m-7045 -39
c0 -7 -24 -21 -55 -30 -31 -10 -84 -32 -118 -51 -68 -36 -84 -35 -55 4 42 58
228 121 228 77z m-882 -72 c8 -12 4 -26 -12 -53 -26 -41 -55 -47 -90 -18 -19
15 -20 20 -9 49 7 18 21 34 33 36 36 8 68 2 78 -14z m3874 -10 c75 -41 163
-104 163 -117 0 -19 -53 -7 -110 26 -25 14 -66 36 -92 50 -45 24 -57 40 -41
55 12 12 42 7 80 -14z m1622 -73 c29 -61 -37 -88 -71 -30 -17 30 -17 33 -2 49
24 23 57 15 73 -19z m-2245 -53 c4 -9 4 -18 1 -21 -7 -8 -35 19 -35 34 0 17
27 7 34 -13z m1949 -19 c-9 -15 -19 -21 -21 -15 -6 19 6 41 23 41 14 0 13 -3
-2 -26z m-2243 -126 c-1 -21 -59 -86 -60 -66 0 14 45 78 56 78 2 0 4 -6 4 -12z
m2856 -56 c-15 -15 -16 -15 -16 1 0 9 6 26 13 38 12 20 12 20 15 -2 2 -12 -3
-29 -12 -37z m-5180 26 c7 -11 -34 -53 -44 -44 -2 3 -2 17 2 31 7 26 30 34 42
13z m813 -91 c14 -18 26 -77 15 -77 -9 1 -44 64 -44 80 0 14 16 12 29 -3z
m1549 -60 c32 -25 -6 -165 -42 -151 -20 8 -27 42 -13 71 8 18 8 32 -1 56 -17
44 13 57 56 24z m-2873 -228 c8 -13 -23 -38 -47 -39 -25 0 -22 16 4 34 26 19
35 20 43 5z m2285 -91 l0 -83 -19 31 c-11 18 -24 35 -30 38 -5 4 -7 14 -4 24
7 20 42 72 49 72 2 0 4 -37 4 -82z m694 50 c-6 -22 -25 -41 -31 -34 -2 2 1 15
6 30 13 32 35 36 25 4z m-3072 -13 c0 -14 -42 -43 -76 -51 -38 -9 -31 13 14
44 34 23 61 26 62 7z m-183 -107 c-12 -24 -44 -58 -54 -58 -9 0 -1 33 10 46 9
9 46 33 53 34 1 0 -3 -10 -9 -22z m3755 -8 c24 -24 15 -57 -23 -87 -25 -20
-33 -21 -61 -12 -28 10 -31 15 -25 38 3 14 9 41 12 59 5 33 7 34 42 27 20 -3
44 -15 55 -25z m3710 -180 c-9 -16 -19 -32 -25 -35 -15 -10 -10 -22 10 -28 14
-3 17 -11 14 -31 -7 -37 -33 -34 -33 4 0 17 -4 30 -8 30 -5 0 -16 18 -24 39
-18 44 -15 46 54 50 26 1 26 1 12 -29z m523 -115 c-8 -15 -17 -23 -20 -18 -9
14 16 64 26 54 5 -5 2 -21 -6 -36z m-7577 6 c0 -14 -18 -23 -30 -16 -6 4 -8
11 -5 16 8 12 35 12 35 0z m159 -33 c38 -38 68 -91 72 -133 6 -43 -22 -39 -34
4 -11 45 -62 118 -87 126 -11 3 -20 13 -20 21 0 24 35 15 69 -18z m5819 -150
c16 -16 15 -55 -1 -65 -8 -4 -18 -15 -23 -24 -5 -9 -21 -30 -36 -48 -22 -26
-36 -32 -66 -33 -35 0 -38 -2 -34 -24 9 -49 -50 -73 -90 -37 -26 23 -32 10
-14 -26 16 -29 15 -31 -9 -47 -24 -15 -26 -15 -75 21 -27 20 -50 43 -50 51 0
8 12 26 26 41 29 28 44 63 44 98 0 20 6 25 38 30 98 16 136 26 149 42 22 28
120 42 141 21z m180 -36 c4 -14 -27 -16 -47 -3 -7 5 -11 14 -7 19 8 13 48 1
54 -16z m-611 -7 c1 -5 -14 -30 -35 -53 l-37 -44 -27 21 c-14 12 -34 21 -43
21 -11 0 -15 7 -13 23 3 19 9 22 50 22 26 0 53 6 60 13 14 14 40 12 45 -3z
m-2082 -1 c9 -4 21 -18 26 -31 14 -38 -13 -80 -61 -93 -45 -12 -72 -3 -91 31
-13 25 12 85 39 92 27 7 69 8 87 1z m3055 -44 c0 -5 14 -10 31 -10 31 0 31 -1
15 -22 -9 -13 -35 -54 -57 -91 -26 -43 -47 -66 -55 -63 -7 3 -34 -4 -60 -15
-43 -20 -47 -20 -65 -3 -17 16 -18 19 -4 34 11 13 14 28 9 57 l-6 40 38 7 c22
3 62 22 89 41 53 37 65 41 65 25z m-2736 -42 c32 -50 32 -114 0 -87 -8 6 -14
20 -14 29 0 10 -5 20 -11 22 -7 2 -13 16 -15 31 -3 34 20 36 40 5z m-499 -53
c31 -30 32 -69 3 -111 -29 -42 -56 -58 -73 -44 -7 6 -17 10 -21 9 -23 -4 -35
4 -50 32 -24 48 -12 90 34 117 48 28 77 28 107 -3z m445 15 c0 -5 -8 -10 -17
-10 -15 0 -16 2 -3 10 19 12 20 12 20 0z m2570 0 c0 -5 -2 -10 -4 -10 -3 0 -8
5 -11 10 -3 6 -1 10 4 10 6 0 11 -4 11 -10z m-2610 -109 c32 -30 39 -65 16
-74 -18 -7 -106 54 -106 74 0 39 49 39 90 0z m-173 -100 c-4 -21 -2 -31 9 -35
19 -7 9 -26 -14 -26 -9 0 -28 9 -41 19 l-25 19 25 26 c33 35 53 34 46 -3z
m-4300 -13 c-3 -8 -6 -5 -6 6 -1 11 2 17 5 13 3 -3 4 -12 1 -19z m4421 -24
c27 -19 28 -44 2 -72 -29 -31 -40 -27 -40 12 0 26 -7 39 -27 55 l-28 20 35 1
c20 0 46 -7 58 -16z m2632 -53 c0 -37 -24 -59 -45 -41 -12 10 -11 16 7 41 27
37 38 37 38 0z m-1694 -29 c7 -18 9 -32 4 -32 -12 0 -40 41 -40 58 0 23 21 8
36 -26z m-1802 -56 c35 -29 30 -61 -6 -51 -76 21 -92 37 -66 63 18 18 40 14
72 -12z m5954 -76 c17 -11 45 -34 60 -51 28 -31 30 -32 71 -22 25 7 54 8 71 3
28 -8 124 -69 118 -75 -14 -13 -84 -11 -109 3 -28 16 -31 16 -44 -2 -10 -14
-15 -46 -15 -100 0 -45 -5 -99 -10 -121 -19 -85 -166 -174 -264 -160 -66 10
-145 61 -178 116 -26 41 -30 79 -8 79 4 0 23 -23 41 -50 44 -65 67 -71 117
-30 33 26 43 30 60 21 33 -17 52 -3 52 38 0 42 13 67 29 56 7 -4 23 0 36 9 13
9 31 16 39 16 9 0 20 9 26 21 9 16 8 24 -3 37 -9 9 -18 29 -22 44 -10 39 -32
55 -56 40 -10 -7 -27 -12 -37 -12 -9 0 -27 -7 -39 -15 -21 -15 -23 -14 -38 14
-8 17 -11 32 -6 35 16 10 23 83 11 105 -10 20 -8 21 27 21 21 0 53 -9 71 -20z
m-3344 -31 c43 -51 28 -101 -34 -119 -27 -8 -38 -6 -61 11 -56 39 -64 86 -21
118 41 31 85 27 116 -10z m-1174 1 c0 -5 -9 -10 -20 -10 -11 0 -20 5 -20 10 0
6 9 10 20 10 11 0 20 -4 20 -10z m-1358 -42 c-9 -9 -15 -9 -24 0 -10 10 -10
15 2 22 20 12 38 -6 22 -22z m335 -116 l28 -54 85 -1 c77 -2 89 -5 126 -32 66
-47 98 -106 98 -179 0 -34 -7 -73 -15 -87 -19 -35 -71 -93 -100 -112 -34 -22
-144 -32 -197 -18 -78 21 -162 120 -162 189 0 38 26 100 53 130 18 19 19 26 9
42 -7 11 -12 37 -12 58 0 41 35 125 50 120 5 -2 22 -27 37 -56z m3512 44 c10
-11 9 -24 0 -58 -17 -58 -71 -161 -86 -166 -16 -4 -18 50 -4 76 6 9 22 50 38
89 15 40 31 73 34 73 4 0 12 -6 18 -14z m-1189 -26 c32 -32 36 -67 9 -96 -37
-39 -79 -25 -100 35 -22 63 44 108 91 61z m3190 -88 c0 -25 -1 -25 -15 -6 -8
10 -15 27 -15 38 0 15 3 16 15 6 8 -7 15 -24 15 -38z m-3615 -13 c11 -17 -26
-49 -55 -49 -31 0 -47 25 -29 46 13 16 75 19 84 3z m100 -20 c14 -14 -7 -42
-39 -53 -20 -8 -30 -6 -42 5 -13 14 -12 18 7 43 21 27 48 28 74 5z m485 -1
c11 -12 20 -26 20 -31 0 -5 6 -23 14 -40 8 -18 16 -41 18 -52 2 -11 10 -19 17
-17 8 2 10 -4 7 -16 -4 -11 0 -24 7 -31 8 -6 12 -22 9 -36 -3 -19 0 -25 13
-25 11 0 15 -5 11 -15 -3 -8 2 -34 10 -57 23 -64 30 -247 11 -273 l-16 -20 -6
20 c-4 11 -41 88 -82 172 -41 84 -78 165 -83 180 -4 15 -11 35 -15 44 -5 13 2
20 31 29 20 7 32 15 28 19 -5 3 -9 27 -9 53 0 30 -7 53 -18 66 -21 23 -22 52
-2 52 8 0 23 -10 35 -22z m1860 2 c0 -11 -94 -118 -121 -138 -37 -26 -30 9 11
58 61 72 110 108 110 80z m-2250 -50 c25 -19 25 -19 5 -34 -54 -41 -126 2 -80
47 17 18 40 14 75 -13z m70 -65 c11 -20 11 -27 0 -40 -20 -24 -59 -19 -72 10
-9 21 -8 27 13 44 27 22 41 19 59 -14z m60 -67 c25 -42 25 -42 -5 -56 -21 -10
-30 -9 -50 4 -21 13 -23 19 -14 42 10 26 26 42 42 42 4 0 16 -15 27 -32z
m1954 -63 c6 -16 -3 -19 -28 -9 -22 8 -20 24 3 24 10 0 21 -7 25 -15z m-2434
-74 c15 -29 12 -41 -10 -41 -25 0 -44 32 -28 48 17 17 26 15 38 -7z m-1318
-16 c0 -5 -5 -11 -11 -13 -6 -2 -11 4 -11 13 0 9 5 15 11 13 6 -2 11 -8 11
-13z m758 -25 c0 -11 -4 -20 -10 -20 -5 0 -10 9 -10 20 0 11 5 20 10 20 6 0
10 -9 10 -20z m640 -15 c10 -12 10 -18 0 -30 -15 -18 -20 -18 -45 1 -20 15
-20 15 -1 30 25 18 31 18 46 -1z m-1542 -43 c2 -7 -7 -12 -22 -12 -27 0 -35
15 -13 23 17 7 30 3 35 -11z m1269 -44 c-17 -11 -67 -10 -67 2 0 5 12 16 28
24 24 13 28 13 39 -1 10 -14 10 -18 0 -25z m351 10 c5 -24 -10 -23 -39 2 l-24
20 30 -2 c19 -2 31 -9 33 -20z m-328 -35 c0 -13 -14 -28 -30 -32 -8 -2 -24 -6
-35 -9 -16 -4 -17 -2 -8 8 23 25 73 47 73 33z m4003 -39 c-10 -7 -23 -14 -30
-14 -6 0 -13 -6 -16 -12 -2 -7 -7 -10 -11 -7 -12 12 6 38 32 47 35 12 49 4 25
-14z m-3963 -18 c0 -19 -15 -29 -82 -55 -44 -18 -63 -21 -85 -13 l-28 9 32 7
c17 4 37 14 44 22 6 8 18 14 25 14 8 0 14 4 14 9 0 10 22 18 58 20 13 1 22 -5
22 -13z m2318 -5 c3 -8 -1 -12 -9 -9 -7 2 -15 10 -17 17 -3 8 1 12 9 9 7 -2
15 -10 17 -17z m-4735 -37 c16 -13 32 -24 35 -24 4 0 24 -16 45 -36 37 -36 50
-68 22 -58 -8 4 -15 1 -15 -6 0 -6 8 -10 18 -8 19 3 42 -9 42 -21 0 -17 -45
-20 -67 -6 -12 8 -29 15 -38 15 -20 0 -65 29 -65 42 0 6 13 8 30 5 17 -4 30
-2 30 3 0 6 -7 10 -15 10 -9 0 -19 8 -22 18 -4 9 -14 24 -23 32 -9 8 -15 21
-13 28 4 11 -8 16 -34 13 -7 -1 -13 6 -13 15 0 22 44 11 83 -22z m6537 -24 c0
-5 -7 -10 -15 -10 -8 0 -15 5 -15 10 0 6 7 10 15 10 8 0 15 -4 15 -10z m-1284
-220 c46 -91 84 -170 84 -176 0 -7 -31 -16 -72 -22 -40 -5 -112 -20 -161 -32
-48 -13 -90 -21 -93 -17 -3 3 -12 47 -19 99 -8 51 -19 128 -26 172 -12 78 -12
79 12 97 13 11 33 21 44 23 11 3 40 9 65 14 80 17 76 21 166 -158z m991 154
c6 -17 83 -54 113 -54 18 0 47 -36 37 -47 -12 -11 -154 -15 -161 -4 -14 22
-20 121 -7 121 6 0 14 -7 18 -16z m-1523 -87 c-22 -46 -114 -107 -114 -76 0
16 99 108 117 109 9 0 9 -9 -3 -33z m-6599 -14 c18 -14 18 -15 2 -9 -10 3 -25
6 -33 6 -9 0 -12 5 -9 10 8 14 16 12 40 -7z m3944 -141 l0 -37 -13 35 c-13 37
-11 54 5 45 5 -4 9 -23 8 -43z m-1434 -22 c-3 -5 -12 -10 -20 -10 -8 0 -17 5
-20 10 -4 6 5 10 20 10 15 0 24 -4 20 -10z m-2493 -27 c33 -39 32 -47 -2 -26
-19 12 -36 27 -38 32 -6 18 24 12 40 -6z m2861 -80 c88 -44 171 -95 199 -121
15 -13 37 -30 50 -36 13 -6 23 -18 23 -26 0 -24 -39 -17 -50 8 -5 12 -15 22
-22 22 -6 0 -48 23 -92 50 -44 28 -83 50 -86 50 -15 0 -104 63 -99 71 8 14 20
11 77 -18z m-2323 -23 c0 -5 -7 -10 -15 -10 -8 0 -15 5 -15 10 0 6 7 10 15 10
8 0 15 -4 15 -10z m6685 0 c-3 -5 -15 -10 -26 -10 -10 0 -19 -4 -19 -10 0 -5
5 -10 10 -10 8 0 16 -39 8 -40 -2 -1 -30 -3 -63 -6 -33 -3 -90 -14 -127 -25
-79 -23 -78 -23 -78 -6 0 8 21 21 48 30 l47 17 -40 -6 c-22 -2 -57 -7 -77 -10
-24 -4 -38 -2 -38 5 0 16 27 26 115 46 44 9 91 21 105 25 37 12 142 12 135 0z
m-6560 -24 c6 -7 16 -11 24 -8 8 2 18 -3 23 -12 5 -9 22 -16 39 -16 34 0 68
-15 86 -39 19 -25 16 -31 -19 -32 -25 -1 -27 -3 -10 -6 18 -4 21 -9 16 -26 -6
-19 -5 -20 10 -8 9 7 16 19 16 26 0 17 27 38 34 27 3 -6 25 -20 48 -32 68 -35
123 -81 145 -122 l21 -37 -22 -3 c-17 -3 -121 20 -176 38 -13 4 -13 6 0 14 12
8 11 10 -5 11 -11 1 -28 0 -38 0 -28 -3 -77 37 -77 64 0 23 -23 55 -40 55 -4
0 -10 -10 -13 -21 -5 -17 -11 -20 -32 -15 -24 6 -139 80 -177 114 -21 17 -24
36 -6 30 7 -3 24 1 37 8 30 16 101 9 116 -10z m3385 0 c0 -7 7 -27 15 -42 8
-16 15 -34 15 -41 0 -22 -23 -26 -37 -8 -15 22 -18 105 -3 105 6 0 10 -6 10
-14z m1912 -3 c26 -24 24 -55 -4 -51 -18 2 -24 11 -26 36 -4 36 3 40 30 15z
m-2037 -33 c3 -11 15 -25 26 -30 10 -6 19 -17 19 -25 0 -8 7 -15 15 -15 18 0
19 12 4 27 -6 6 -7 13 -2 16 5 3 17 -7 26 -22 16 -27 16 -29 -1 -27 -12 1 -17
-6 -17 -24 0 -15 -6 -25 -14 -25 -16 0 -67 80 -77 120 -7 30 12 34 21 5z
m2875 -10 c0 -5 -5 -10 -11 -10 -6 0 -25 -11 -42 -24 -42 -31 -97 -44 -97 -22
0 17 10 25 65 47 46 20 85 23 85 9z m-4786 -23 c9 -13 1 -26 -39 -67 -27 -27
-55 -50 -61 -50 -17 0 -23 21 -13 49 8 19 12 21 24 11 12 -10 18 -8 35 11 23
28 24 35 9 45 -8 4 -7 9 2 15 18 11 30 7 43 -14z m5713 -24 c-8 -7 -37 9 -31
19 3 5 12 4 20 -3 8 -6 13 -14 11 -16z m-610 2 c-54 -28 -180 -45 -156 -21 5
6 139 34 164 35 16 1 14 -2 -8 -14z m-369 -42 c-10 -2 -18 -8 -18 -13 0 -5 -8
-6 -17 -3 -15 6 -15 7 3 14 10 4 26 7 34 7 10 0 9 -2 -2 -5z m-4578 -53 c18
-25 19 -31 6 -36 -8 -3 -23 -1 -35 5 -28 16 -35 14 -65 -15 l-26 -27 0 27 c0
15 7 40 15 56 25 49 66 45 105 -10z m3553 -22 c32 -67 43 -103 29 -94 -6 4
-26 7 -45 8 -35 1 -35 1 -40 57 -4 52 4 81 23 81 4 0 19 -24 33 -52z m1087 22
l35 -1 -45 -18 c-56 -22 -94 -22 -98 1 -3 18 21 28 53 22 11 -2 36 -4 55 -4z
m-713 -84 c21 -33 21 -35 4 -50 -17 -16 -21 -15 -50 9 -32 27 -41 59 -18 68
28 12 43 5 64 -27z m-2437 -8 c49 -34 77 -75 62 -90 -10 -10 -22 -2 -58 35
-26 26 -50 47 -55 47 -5 0 -9 7 -9 15 0 21 22 19 60 -7z m-1642 -26 c15 -12
21 -24 16 -35 -9 -24 -19 -21 -43 9 -35 45 -18 61 27 26z m-2544 -81 c21 -16
42 -31 48 -33 24 -8 -2 -36 -40 -43 -21 -3 -50 -17 -65 -31 -44 -40 -77 -30
-91 28 -5 21 -1 33 14 48 21 21 80 60 91 60 3 0 23 -13 43 -29z m5960 -7 c9
-3 16 -17 16 -30 0 -19 -5 -24 -25 -24 -21 0 -25 5 -25 30 0 31 6 35 34 24z
m-2664 -49 c5 -13 27 -36 50 -51 22 -15 40 -30 40 -33 0 -10 -49 -55 -82 -76
-31 -19 -37 -55 -13 -75 8 -7 15 -20 15 -29 0 -36 59 -77 75 -52 3 5 31 19 61
31 46 17 59 18 71 8 34 -28 -5 -161 -61 -207 -15 -12 -21 -10 -50 18 -18 18
-39 50 -46 72 -8 22 -22 45 -32 50 -10 5 -18 14 -18 20 0 6 -11 25 -25 43 -14
18 -25 40 -25 49 0 9 -11 24 -25 33 -20 13 -25 25 -25 57 0 30 6 46 25 63 17
16 25 34 25 57 0 52 24 65 40 22z m-154 -81 c-3 -9 -6 -23 -6 -31 0 -13 -3
-13 -15 -3 -11 9 -12 17 -4 31 12 23 34 26 25 3z m-2557 -71 c6 -21 11 -46 11
-56 0 -11 7 -34 16 -52 13 -29 14 -38 2 -61 -15 -30 -150 -109 -172 -101 -8 3
-19 21 -24 39 -47 154 -46 146 -28 173 9 14 27 30 39 35 12 6 29 14 37 19 27
15 85 40 97 40 7 1 17 -16 22 -36z m7241 1 c0 -8 -4 -12 -10 -9 -5 3 -10 10
-10 16 0 5 5 9 10 9 6 0 10 -7 10 -16z m-3060 -5 c0 -5 5 -7 10 -4 18 11 11
-5 -17 -35 -14 -17 -34 -30 -44 -30 -26 0 -29 31 -6 58 21 23 57 30 57 11z
m-3912 -43 c7 -65 40 -193 54 -213 5 -6 6 -22 3 -36 -5 -18 -1 -30 16 -46 13
-11 26 -21 31 -21 11 0 10 -27 -1 -32 -5 -1 -18 -19 -30 -38 l-21 -35 1 40 c0
22 -2 55 -6 72 -8 34 -19 39 -104 45 -43 4 -61 29 -38 53 9 9 17 21 17 28 0 6
12 23 26 38 24 25 25 29 11 50 -8 13 -18 50 -22 82 l-6 57 34 -16 c18 -9 34
-21 35 -28z m2732 25 c0 -6 -4 -13 -10 -16 -5 -3 -10 1 -10 9 0 9 5 16 10 16
6 0 10 -4 10 -9z m-4146 -102 c-24 -27 -30 -15 -9 18 12 17 20 23 23 15 2 -7
-4 -22 -14 -33z m8769 -1 c8 -24 -5 -38 -34 -38 -33 0 -40 23 -11 39 23 14 39
13 45 -1z m-6318 -18 c0 -15 -31 -37 -40 -28 -4 3 -1 16 5 28 12 22 35 23 35
0z m2660 -1 c5 -14 2 -25 -6 -30 -36 -22 -61 2 -33 31 25 25 31 24 39 -1z
m3573 -72 c3 -23 0 -27 -22 -27 -34 0 -42 17 -20 40 25 24 38 20 42 -13z m-80
-73 c-3 -19 -34 -41 -43 -32 -9 9 18 48 33 48 7 0 12 -7 10 -16z m520 -16 c25
-25 6 -103 -22 -92 -8 3 -20 19 -26 35 -11 25 -10 32 5 49 21 23 27 24 43 8z
m-5612 -35 c-10 -10 -19 5 -10 18 6 11 8 11 12 0 2 -7 1 -15 -2 -18z m2519
-58 c55 -41 70 -96 30 -111 -11 -4 -28 7 -51 35 -23 26 -44 41 -59 41 -12 0
-29 7 -36 16 -11 14 -10 19 10 35 27 22 61 17 106 -16z m3054 -34 c18 -25 19
-34 10 -55 -17 -37 -37 -40 -54 -6 -19 37 -19 55 1 74 20 21 19 21 43 -13z
m-7751 -15 c35 -37 39 -46 20 -46 -14 0 -78 59 -78 72 0 18 28 6 58 -26z
m-278 -1 c0 -14 -4 -25 -10 -25 -11 0 -14 33 -3 43 11 11 13 8 13 -18z m5577
9 c4 -12 -44 -65 -79 -87 -38 -24 -65 -21 -84 8 -17 26 -12 45 13 45 8 0 27 8
41 19 15 10 34 21 42 24 21 8 63 2 67 -9z m-270 -48 c8 -7 10 -21 5 -41 -10
-35 -38 -43 -82 -23 -57 25 -29 93 33 81 18 -3 38 -11 44 -17z m-1583 -42 c11
-30 -2 -89 -31 -133 -8 -12 -33 26 -33 49 0 64 48 127 64 84z m4251 -4 c17
-19 17 -21 -6 -55 -31 -45 -47 -51 -59 -19 -27 71 19 124 65 74z m-6413 -60
c49 -36 74 -68 61 -81 -5 -5 -33 16 -67 51 -64 65 -61 78 6 30z m3506 -32 c1
-40 -13 -58 -44 -58 -29 0 -42 22 -36 61 4 26 8 29 42 29 35 0 37 -2 38 -32z
m2820 -5 c11 -25 10 -29 -10 -45 -41 -31 -68 -19 -68 31 0 46 58 56 78 14z
m421 -7 c18 -21 31 -77 25 -102 -11 -43 -133 -63 -154 -25 -13 25 -13 67 0 91
22 42 105 65 129 36z m-6678 -151 c-3 -16 -5 -46 -5 -66 -1 -22 -5 -35 -12
-32 -13 5 -140 -92 -148 -113 -3 -8 -19 -14 -40 -14 -20 0 -54 -7 -77 -16 -38
-16 -45 -16 -95 0 l-54 17 6 38 c10 64 -42 81 -61 20 -4 -13 -16 -19 -37 -19
-16 0 -28 3 -26 8 2 4 10 19 17 33 12 24 11 29 -10 50 -13 13 -27 23 -31 22
-5 -2 -8 0 -8 5 1 30 62 57 185 81 65 13 133 18 245 17 l155 -1 -4 -30z m2064
5 c3 -5 1 -10 -5 -10 -11 0 -46 -22 -205 -131 -67 -46 -122 -76 -236 -130 -27
-13 -87 -21 -98 -14 -7 4 -2 23 14 56 23 45 72 87 123 106 9 4 25 15 34 26 10
11 24 17 32 14 7 -3 22 2 32 11 18 17 52 33 139 65 46 17 161 22 170 7z
m-3125 -29 c15 -28 12 -61 -4 -61 -22 0 -46 29 -46 56 0 30 34 33 50 5z m7518
-2 c-7 -5 -24 -9 -38 -9 l-25 0 25 13 c28 15 62 11 38 -4z m-8148 -59 c13 -24
12 -24 -6 -10 -10 8 -21 15 -23 17 -1 1 0 7 4 13 8 13 8 13 25 -20z m5900
-191 c21 -40 22 -40 61 -34 l41 7 -18 -33 c-10 -19 -20 -50 -23 -69 -7 -41
-41 -56 -41 -18 0 17 -3 20 -9 9 -5 -8 -7 -21 -4 -29 5 -11 1 -13 -18 -7 -18
5 -20 4 -9 -4 13 -9 12 -11 -1 -16 -9 -3 -35 4 -59 17 -43 23 -63 48 -39 48
19 0 89 71 89 90 0 10 -9 25 -20 35 -27 25 -25 45 5 45 19 0 30 -10 45 -41z
m-5801 -23 c9 -11 10 -20 1 -35 -16 -31 -40 -27 -40 7 0 43 17 54 39 28z
m4421 -56 c0 -5 -7 -7 -15 -4 -8 4 -15 8 -15 10 0 2 7 4 15 4 8 0 15 -4 15
-10z m1250 -80 c13 -9 12 -12 -4 -25 -25 -19 -50 -19 -66 0 -10 12 -10 16 1
19 8 2 21 7 29 9 22 8 24 8 40 -3z m-5550 -80 c0 -5 -4 -10 -10 -10 -5 0 -10
5 -10 10 0 6 5 10 10 10 6 0 10 -4 10 -10z m-328 -132 c28 -23 29 -47 2 -65
-22 -14 -27 -14 -39 -2 -16 17 -9 79 9 79 7 0 19 -6 28 -12z m1978 -18 c0 -5
-2 -10 -4 -10 -3 0 -8 5 -11 10 -3 6 -1 10 4 10 6 0 11 -4 11 -10z m5463 -29
c-13 -11 -23 -23 -23 -27 0 -11 -31 -44 -42 -44 -17 0 -7 25 24 57 18 18 39
33 47 33 12 -1 10 -5 -6 -19z m-7565 -112 c6 -53 -68 -78 -81 -27 -10 36 10
60 46 56 26 -2 33 -8 35 -29z m1770 -12 c4 -34 -37 -59 -63 -37 -21 18 -19 36
8 55 30 21 51 15 55 -18z m-288 -102 c-7 -8 -16 -15 -21 -15 -13 0 -11 24 3
38 18 18 35 -3 18 -23z m-1646 -4 c35 -39 0 -111 -41 -85 -25 16 -29 75 -7 91
23 17 28 17 48 -6z m1355 -18 c10 -8 -40 -93 -54 -93 -18 0 -44 49 -37 70 10
31 24 39 55 33 18 -3 34 -8 36 -10z m682 -13 c13 -7 19 -21 19 -44 0 -36 -11
-50 -48 -59 -36 -9 -51 2 -58 41 -6 29 -3 39 16 54 25 21 43 22 71 8z m2269
-29 c38 -27 33 -62 -12 -86 -35 -19 -39 -19 -65 -3 -16 9 -35 28 -43 43 -14
25 -14 27 14 51 32 28 62 27 106 -5z m3120 -40 c0 -12 -41 -22 -54 -13 -6 3 0
9 14 13 36 10 40 10 40 0z m-6550 -18 c0 -13 3 -14 12 -5 14 14 38 16 38 4 0
-8 -44 -32 -58 -32 -18 1 -32 18 -26 33 8 22 34 22 34 0z m2583 -90 c-11 -29
-46 -53 -58 -41 -7 7 -6 12 2 15 7 3 23 13 35 23 28 24 29 24 21 3z m2336 -9
c2 -2 -2 -11 -9 -20 -13 -15 -46 -14 -104 3 -20 5 -20 6 0 20 13 10 32 12 64
8 25 -4 47 -9 49 -11z m2452 -268 c75 -40 123 -68 137 -78 23 -19 13 -31 -22
-25 -36 6 -187 96 -194 115 -6 19 32 14 79 -12z m-6731 -287 c0 -5 -4 -9 -10
-9 -5 0 -10 7 -10 16 0 8 5 12 10 9 6 -3 10 -10 10 -16z m2634 -115 c8 -21
-33 -84 -50 -77 -9 3 -10 10 -4 21 5 10 11 29 15 45 6 30 29 36 39 11z m-68
-41 c-10 -10 -19 5 -10 18 6 11 8 11 12 0 2 -7 1 -15 -2 -18z m98 -52 c-8 -10
-32 22 -27 35 4 12 8 10 18 -8 6 -13 10 -25 9 -27z m119 -215 c4 -10 1 -13 -9
-9 -7 3 -14 9 -14 14 0 14 17 10 23 -5z m2972 -76 c29 -87 39 -166 23 -177
-16 -10 -112 -44 -238 -85 -52 -17 -109 -37 -127 -44 -17 -8 -35 -14 -40 -14
-14 0 -25 238 -12 261 5 11 16 19 24 19 8 0 15 5 15 12 0 6 3 8 7 4 4 -4 9
-30 11 -59 4 -61 27 -106 65 -127 24 -13 30 -13 63 5 64 34 81 100 44 178 -21
45 -71 83 -96 73 -7 -3 -14 -1 -14 4 0 13 43 17 154 16 l99 -1 22 -65z m-526
-65 c16 -96 19 -237 5 -242 -8 -2 -13 40 -17 134 -4 76 -9 152 -13 168 -4 19
-3 26 3 20 6 -5 15 -41 22 -80z m-1809 40 c0 -8 -7 -15 -15 -15 -16 0 -20 12
-8 23 11 12 23 8 23 -8z m1753 -74 c3 -40 4 -71 1 -69 -9 9 -25 121 -19 135 9
24 12 14 18 -66z m126 -126 l-1 -120 -14 55 c-11 45 -20 186 -15 225 1 6 8 -1
16 -15 10 -18 14 -58 14 -145z m1 -261 c0 -9 -7 -14 -17 -12 -25 5 -28 28 -4
28 12 0 21 -6 21 -16z m-5300 -24 c0 -5 -18 -10 -40 -10 -23 0 -59 -9 -80 -20
-22 -11 -40 -17 -40 -14 0 4 -16 -9 -35 -29 -39 -40 -45 -43 -45 -24 1 15 30
51 50 60 8 4 22 11 30 15 8 5 24 14 35 20 25 14 125 15 125 2z m3310 -52 c21
-35 27 -78 10 -78 -8 0 -60 90 -60 105 0 3 7 5 15 5 8 0 24 -15 35 -32z m1078
-230 c16 -16 -3 -37 -28 -31 -25 7 -27 43 -2 43 10 0 23 -5 30 -12z m-240
-158 c2 -18 -1 -37 -7 -43 -10 -10 -15 8 -14 51 1 6 -3 12 -9 12 -5 0 -6 5 -3
11 12 19 30 3 33 -31z"/>
<path d="M3835 8614 c-18 -18 -17 -55 3 -62 8 -2 10 2 6 13 -5 12 2 25 22 41
27 22 28 23 7 24 -12 0 -29 -7 -38 -16z"/>
<path d="M7033 8593 c9 -9 20 -13 24 -9 4 4 1 11 -7 16 -25 16 -35 11 -17 -7z"/>
<path d="M6967 8538 c-3 -12 -2 -29 3 -37 8 -13 9 -11 10 10 0 14 5 30 12 37
9 9 8 12 -4 12 -9 0 -18 -10 -21 -22z"/>
<path d="M6842 8488 c-14 -14 -16 -28 -3 -28 9 0 24 30 18 36 -2 2 -9 -2 -15
-8z"/>
<path d="M6980 8460 c0 -5 7 -10 16 -10 8 0 12 5 9 10 -3 6 -10 10 -16 10 -5
0 -9 -4 -9 -10z"/>
<path d="M6885 8430 c-4 -6 -3 -16 3 -22 6 -6 12 -6 17 2 4 6 3 16 -3 22 -6 6
-12 6 -17 -2z"/>
<path d="M6965 8360 c-5 -8 -2 -16 9 -22 9 -5 16 -22 16 -38 0 -17 5 -30 11
-30 6 0 8 7 5 16 -3 9 -6 23 -6 33 0 9 -6 25 -13 36 -11 14 -16 15 -22 5z"/>
<path d="M4530 6851 c0 -12 39 -25 48 -16 7 7 -17 25 -35 25 -7 0 -13 -4 -13
-9z"/>
<path d="M4110 6195 c-7 -8 -18 -15 -25 -15 -27 0 -36 -26 -20 -63 20 -49 30
-52 62 -23 15 15 33 26 40 26 22 0 25 22 7 56 -20 36 -44 43 -64 19z"/>
<path d="M4158 6081 c-48 -33 -54 -54 -28 -90 11 -17 27 -45 35 -64 10 -23 22
-36 40 -39 14 -3 25 -1 25 3 0 5 7 9 15 9 16 0 95 72 95 87 0 12 -108 107
-130 115 -8 3 -32 -7 -52 -21z"/>
<path d="M6588 5993 c7 -3 16 -2 19 1 4 3 -2 6 -13 5 -11 0 -14 -3 -6 -6z"/>
<path d="M8327 5374 c-44 -29 -52 -44 -43 -80 8 -32 66 -58 112 -49 39 7 94
55 94 83 0 30 -55 72 -93 71 -18 0 -49 -11 -70 -25z"/>
<path d="M8513 5123 c9 -2 25 -2 35 0 9 3 1 5 -18 5 -19 0 -27 -2 -17 -5z"/>
<path d="M8448 5103 c7 -3 16 -2 19 1 4 3 -2 6 -13 5 -11 0 -14 -3 -6 -6z"/>
<path d="M1965 5116 c11 -9 31 -16 45 -16 33 0 13 16 -30 24 -32 6 -33 5 -15
-8z"/>
<path d="M2044 5102 c-11 -11 -28 -22 -39 -25 -14 -3 -11 -5 10 -6 21 -1 34 6
43 20 18 28 8 35 -14 11z"/>
<path d="M2076 5086 c-4 -20 -1 -43 7 -58 11 -21 15 -23 26 -11 14 15 8 28
-12 28 -7 0 -13 8 -15 18 -3 16 1 18 25 15 15 -3 23 -3 17 -1 -7 2 -14 13 -17
24 -8 30 -24 22 -31 -15z"/>
<path d="M2271 4985 l-25 -14 37 -21 c20 -12 37 -26 37 -31 0 -4 7 -6 15 -3
20 8 19 16 -3 40 -10 11 -17 25 -14 32 5 15 -16 14 -47 -3z"/>
<path d="M2440 4880 c0 -5 4 -10 9 -10 6 0 13 5 16 10 3 6 -1 10 -9 10 -9 0
-16 -4 -16 -10z"/>
<path d="M2850 3735 c0 -8 4 -15 9 -15 5 0 11 7 15 15 3 9 0 15 -9 15 -8 0
-15 -7 -15 -15z"/>
<path d="M2712 3731 c-11 -7 -11 -9 2 -14 10 -4 16 -1 16 8 0 17 -1 17 -18 6z"/>
<path d="M2778 3703 c7 -3 16 -2 19 1 4 3 -2 6 -13 5 -11 0 -14 -3 -6 -6z"/>
<path d="M2720 3680 c0 -5 4 -10 9 -10 6 0 13 5 16 10 3 6 -1 10 -9 10 -9 0
-16 -4 -16 -10z"/>
<path d="M2880 3681 c0 -11 26 -22 34 -14 3 3 3 10 0 14 -7 12 -34 11 -34 0z"/>
<path d="M2550 3659 c0 -5 14 -9 30 -9 39 0 39 15 0 16 -17 1 -30 -3 -30 -7z"/>
<path d="M2675 3609 c-10 -15 3 -25 16 -12 7 7 7 13 1 17 -6 3 -14 1 -17 -5z"/>
<path d="M2775 3594 c-20 -16 -25 -24 -14 -24 16 0 56 37 48 44 -2 2 -17 -7
-34 -20z"/>
<path d="M4648 3563 c6 -2 18 -2 25 0 6 3 1 5 -13 5 -14 0 -19 -2 -12 -5z"/>
</g>
</svg>
